<?xml version="1.0" encoding="UTF-8"?>
<svg id="Camada_1" xmlns="http://www.w3.org/2000/svg" version="1.1" viewBox="0 0 1080 1080">
  <!-- Generator: Adobe Illustrator 30.2.1, SVG Export Plug-In . SVG Version: 2.1.1 Build 1)  -->
  <defs>
    <style>
      .st0 {
        fill: #0069b5;
      }
    </style>
  </defs>
  <path class="st0" d="M958.2,578.2c-15.2-.7-25-11.1-25.1-24.4,0-13.2,9.6-24.2,25.1-24.5v-43.7c-15.4-.7-25.5-11.9-25.1-25.5.4-13.1,10.2-23.3,25.2-23.7v-43.6c-14.8-.9-25-10.8-25.2-23.9-.1-12.8,8.7-24.8,24.4-25.1v-55.2c-30.9-.5-53.9-24.5-54.1-55.2H177.7c0,31.4-24.3,55.7-55.9,55.2v55.8c14.5-.9,26,10.3,26.4,23.5.4,15.3-11.6,25.8-26.4,25.9v43.5c15.8.3,27.1,11.1,26.5,25.6-.6,13.6-11.5,24-26.5,23.9v44c15.6-1,26.5,10.5,26.5,24.6,0,13.6-11.8,25.2-26.5,24.3v54.1c31.2-.8,55.8,23.2,56,54.3h725.7c.8-32.1,25.1-54.1,54.9-54.6v-55.2ZM885.4,610.3c0,14-10.3,30.6-27.3,30.6H223.2c-17.9,0-28.3-16.3-28.3-32.2l.2-297.5c0-13.5,12.1-27.9,25.6-28l181.9-.4.4,15.6h-177.2c-6.3,0-14.8,4.3-14.8,11.6v303c0,7.1,6.9,11.9,13.4,11.9h201.3s.3-67.6.3-67.6l-24.4-23.1v-40.3h38.8v-137.3c.1,0-32.9-.2-32.9-.2-1.9,0-4.9-3.8-5.2-5.6-.4-2.1.6-7,2.8-8.3l130.4-77.5c3.1-1.8,7.6.3,10.4,2l127.2,74.9c3.3,1.9,4.8,6,3.8,9.1-1,3.2-4.6,5.5-8.1,5.6l-30.5.3v136.9s38.9.4,38.9.4v39.8c.1,0-24.7,23.5-24.7,23.5v67.6s204.9,0,204.9,0c7.4,0,12-7.9,12-14.8v-298.4c0-8.1-7.8-13.3-14.7-13.3h-180.2s.1-15.5.1-15.5l184.8.3c15,0,25.8,15.3,25.8,29.4v297.6ZM374.1,418c2.3,0,5,4.9,5.2,7,.2,2.1-1.9,7.5-4.3,8.4h-133.1c-5.1.1-8.5-2.8-8.8-7.2-.3-4.5,2.5-8.5,7.8-8.5l133.1.2ZM268.2,352.9c.7-4.9,5-7.7,10.4-6.2l109.2,30.7c5,1.4,7,5.4,6.6,9.3-.3,2.8-4.9,7.7-8.9,6.6l-110.1-31c-5.2-1.5-7.9-4.6-7.2-9.3ZM281.7,483.3l105.3-31.6c3-.9,7.3,3.7,7.8,6,.6,2.6-.6,8.4-3.9,9.3l-104.4,31.4c-5.2,1.6-9.6-1-10.6-4.7-1.2-4.5.7-8.9,5.7-10.4ZM811.7,360l-121.7,33.1c-5.1,1.4-9.2-2-10.1-5.4-.8-3.1.2-8.4,4.3-9.5l125.3-34c3.6-1,8.1,3.4,8.7,6.2.8,3.8-1.7,8.3-6.5,9.6ZM833.8,417.8c4,0,7.4,3.8,7.8,7,.4,2.7-2.6,8.6-7.1,8.6h-132c-4,0-7.4-4.3-7.6-7.2-.1-3.3,2.7-8.3,6.7-8.3h132.1ZM679.7,458.6c.7-5,5.4-7.7,10.7-6.1l115.1,34.7c5,1.5,7.1,5.9,6.8,9.4-.3,2.9-4.8,7.7-8.8,6.5l-117.3-35.2c-5-1.5-7.1-4.9-6.5-9.3Z"/>
  <polygon class="st0" points="503 844.8 503 806.9 464.7 806.7 464.7 844.8 446.2 844.6 446.3 754.2 464.7 753.9 464.8 790.3 482.3 789.6 502.9 789.5 503 754 521.9 754.1 521.9 844.9 503 844.8"/>
  <path class="st0" d="M785.5,804.7c8.4-5.3,11.7-12.9,10-21-4.9-22.7-41.8-13-62.3-14.9v76.1l46.3-.3c8.3,0,16.8-6.1,19.6-13.7,4.5-12.6-2.3-22.7-13.6-26.1ZM750.4,783.1h19.6c4.4,0,8.3,3.2,8.9,7.1.4,2.9-2.4,9-6,9l-22.6.3v-16.4ZM779.1,829.3c-10.6,1.6-18.5,1.6-28.7,1.3v-17.1c9.3,0,29.2-3.3,32.6,6.1.9,2.4-.6,9.2-3.9,9.7Z"/>
  <polygon class="st0" points="147.6 790.9 147.9 809.2 103.2 809.4 103.2 844.7 83.6 844.5 83.7 753.3 153.6 753.2 153.9 771.5 103.4 771.7 103.3 790.8 147.6 790.9"/>
  <path class="st0" d="M693,818.1c3.9-5.7,19.5-11,14.6-31.6-2.1-8.9-10.8-17.5-21.7-17.6h-42.5c-1.5,26-1.2,50-.3,75.8l16.8.3.4-24.6c4.8-.2,10.4-.2,14.4.7l16.4,23.8,19.2-.2c-2.7-6.4-18.8-24.4-17.3-26.6ZM684.8,804.3c-8.3,1.5-16.4,1.2-24.5,1l-.3-22,20.6.2c5.1,0,10,4.1,10.5,8.3.6,4.4,0,11.5-6.3,12.6Z"/>
  <path class="st0" d="M891.6,778.3c-9-9-21.1-12.3-34.6-11-21.2,2-37.2,20.4-36.4,41.6.8,20.2,17.4,36.3,38.7,37.6,20.2,1.2,39.3-10.8,44-31.8,3.1-14.2-2.6-27.2-11.7-36.4ZM886,808.3c-.9,12.8-10.4,21.7-22,22.4-12.2.7-22.9-6.7-24.9-19.4-2.4-15.1,7.1-28.3,22.1-28.9,13.8-.6,25.9,10.1,24.8,26Z"/>
  <path class="st0" d="M311.5,817.3c13.3-4.1,18.6-16.3,16.8-28.4-1.7-11.6-11.9-20.3-24.9-20.2l-40.2.3v75.7c0,0,16.9,0,16.9,0l.2-24.2c4.3,0,10.1,0,14.5.4l16.4,23.9,19.3-.4-19.1-27.3ZM301.3,805.3l-20.9.2-.3-22.1h19.1c6.9,0,11.6,3.5,12.3,9.9.5,5.1-2.4,12-10.1,12Z"/>
  <path class="st0" d="M977.7,817.4c11-3.7,16.7-12.9,17-23.9.3-13.1-9.3-23.9-23-24.5-14.4-.7-28.2-.5-42.7-.2l.2,76h17c0,.1.3-23.4.3-23.4,2.7-1.7,12.4-2.7,14.6.5l16.3,23.1,18.9-.7-18.6-26.9ZM969.5,804.7c-7.8,1.1-15.8.9-23.1.5l-.3-22,20.3.2c5.3,0,9.9,3.9,10.7,8.3.8,4.8-.6,12-7.6,12.9Z"/>
  <path class="st0" d="M415.8,844.9h-59.4c0,0-.2-76.3-.2-76.3h58.7s-.1,14.4-.1,14.4l-41.8.2.3,15.8,36.6.3c.4,4,.5,9.4.2,14.5l-36.9.2c0,6.2-.1,10.2-1.6,16l43.8.3.4,14.5Z"/>
  <path class="st0" d="M590.2,768.1l-16.7.5-33,76h17.3c0,.1,7.5-17.1,7.5-17.1h33.3c0,.1,7.2,17.3,7.2,17.3h17.8c0,0-33.4-76.7-33.4-76.7ZM571,812.6l10.7-24.9,10.2,24.9h-20.9Z"/>
  <path class="st0" d="M210.8,768.8c-5.8-1.2-11.7-1.5-17.2-.3l-33.1,76,17.4.2,6.8-16.9,33.9-.2,7.1,17.2h17.8c0-.1-32.9-76-32.9-76ZM191.2,812.7l10.6-25.2,10.2,24.6c-6.5.9-14.1.8-20.8.6Z"/>
  <path class="st0" d="M661,527.5l-18.7,18.1h-204.8s-19.4-17.9-19.4-17.9c-.2-5.4,0-12.3.4-18.3h242.5c.6,5.5,1,13.3.1,18.1Z"/>
  <path class="st0" d="M532.2,471.3l-.5,22.6h-75.4s0-137.3,0-137.3h75.2c.5,7.5.5,14.4,0,22.3-23.8,4.6-39.1,24.3-38.5,47.1.6,22.8,16.8,40.4,39.2,45.3Z"/>
  <path class="st0" d="M622.7,493.9l-73.5.2c-2.2-7.2-1.7-15.1-.9-23.4,22.9-4.5,37.9-23.7,37.9-45.9,0-22.1-15.1-41.3-38.2-45.7v-22.4s74.6,0,74.6,0v137.3Z"/>
  <polygon class="st0" points="638.7 340.9 440.5 340.9 539.5 281.7 638.7 340.9"/>
  <path class="st0" d="M637.2,583l-98.4,41.7c-32.5-.2-64.3,1.7-99.2-1.2l158.5-61.7h38.6s.4,21.1.4,21.1Z"/>
  <path class="st0" d="M546.5,455.5c-15.6,3.8-32.1-6-36.6-21.8-4.5-15.9,4.6-33.9,22.4-38.2,17.5-4.2,33.2,6.9,37.3,23.1,4.1,16-6.6,32.9-23.1,37Z"/>
  <polygon class="st0" points="550.7 562.2 442.1 604.5 441.9 561.9 550.7 562.2"/>
  <polygon class="st0" points="637 625 580 624.4 636.6 600.4 637 625"/>
</svg>