<?xml version="1.0" encoding="UTF-8"?>
<svg id="Camada_1" data-name="Camada 1" xmlns="http://www.w3.org/2000/svg" viewBox="0 0 1080 1080">
  <defs>
    <style>
      .cls-1 {
        fill: #fa444b;
      }
    </style>
  </defs>
  <path class="cls-1" d="M705.51,765.28l-146.97,168.26c-10.33,11.82-28.61,9.79-38.46-1.68L94.92,437.05c-14.3-16.65-15.32-39.44-1.21-55.91l136.13-158.79c12.08-14.08,33.18-16.97,46.21-1.65l431.05,507.68c8.23,12.43,7.98,25.97-1.59,36.9Z"/>
  <path class="cls-1" d="M985.59,443.22l-190.51,219.91c-13.19,15.26-33.91,15.29-47.14-.35L341.46,181.38c-7.6-9.03-8.01-19.36-3.02-29.59,3.34-6.8,11.98-13.29,23.52-13.29l387.06.06c13.38,0,25.27,3.59,33.94,13.67l202.49,234.75c13.98,16.21,15.03,39.03.13,56.23Z"/>
</svg>