<?xml version="1.0" encoding="UTF-8"?>
<svg id="Camada_1" data-name="Camada 1" xmlns="http://www.w3.org/2000/svg" viewBox="0 0 1080 1080">
  <defs>
    <style>
      .cls-1 {
        fill: #2fb092;
      }
    </style>
  </defs>
  <path class="cls-1" d="M990.77,244.91c-15.33-83.84-82.56-146.77-166.99-157.35-18.72-2.35-34.46-3.82-53.91-3.82h-457.65c-19.56,0-35.34,1.26-54.15,3.5-80.38,9.58-146.49,66.11-166.05,145.13-6.04,24.4-8.38,47.47-8.38,73.39v468.42c0,25.95,2.26,48.94,8.42,73.51,17.64,70.51,72.85,124.72,143.74,140.8,22.71,5.16,43.85,7.76,67.86,7.76l473.69-.04c24.63,0,44.76-2.75,66.77-7.72,71.59-16.21,126.96-71.3,144.21-142.55,6.01-24.82,7.98-47.77,8-73.9l.02-466.25c0-21.73-1.83-40.29-5.59-60.89ZM753.98,700.13c3.22,16.91-.13,30.88-10.79,42.29-9.62,10.28-25.51,15.46-40.07,11.67-20.37-5.31-28.51-22.48-32.97-41.35-8.94-37.85-29.52-70.25-59.91-93.58-42.76-32.82-99.36-32.25-141.74.75-33.74,26.25-53.15,62.89-62,104.54-2.84,13.31-14.03,22.9-23.16,27.21-13.91,6.57-29.41,4.69-39.5-4.29-18.36-12.71-21.41-31.14-17-51.44,13.73-63.21,47.71-119.02,104.05-155.83-56.26-36.79-89.68-91.47-103.9-154.23-5.74-25.29,1.45-48.37,27.98-59.31,20.37-6.68,45.7,5.63,51.31,29.05,10.39,43.4,31.05,83.34,68.01,108.92,47.35,32.76,105.84,26.34,148.03-12.82,27.55-25.57,43.63-59.35,51.53-95.91,3.01-13.9,13.97-23.35,26.36-28.6,14.74-6.25,31.27-1.04,41.78,10.75,10.24,9,15.01,21.65,12.97,35.68-9.92,67.73-46.45,125.96-104.78,166.71,56.56,38.32,91.34,93.97,103.8,159.8Z"/>
</svg>