<?xml version="1.0" encoding="UTF-8"?>
<svg id="Camada_1" data-name="Camada 1" xmlns="http://www.w3.org/2000/svg" viewBox="0 0 1080 1080">
  <defs>
    <style>
      .cls-1 {
        fill: #2694f2;
      }

      .cls-2 {
        fill: #4da7f4;
      }

      .cls-3 {
        fill: #21c996;
      }

      .cls-4 {
        fill: #0081f0;
      }
    </style>
  </defs>
  <path class="cls-2" d="M995.31,461.29c-9.96-55.89-109.4-23.46-143.7-10.96-92.6,33.77-208.75,96.62-292.89,149.01-39.19,24.39-76.08,49.86-111.35,79.35-48.49,40.54-128.35,120.56-71.66,184.75,41.54,47.05,129.73,69.24,190.19,78.25-4.51-34.51,2.59-65.48,37.22-78.58,14.74-5.59,29.71-8.1,45.53-8.73l71.36-2.89c41.79-1.7,54.78-12.87,79.96-41.36,61.25-69.36,133.1-168.53,172.48-252.21,12.65-26.88,28.13-67.2,22.87-96.64Z"/>
  <path class="cls-4" d="M402.13,550.32c46.18-70.45,96.55-137.01,151.19-202.18-21.83-59.11-48.7-124.99-87.24-174.84-17.41-21.39-46.55-48.73-74.55-27.08-23.05,17.83-38.69,56.28-47.58,84.03-10.54,32.82-18.5,64.97-24.89,99.27-21.83,117.18-41.52,280.27-30.05,397.81,2.19,22.57,5.4,43.81,11.94,64.92.68-12.79,1.57-23.95,4.37-36.78,5.34-28.56,15.26-53.81,26.61-80.05,20.1-43.82,43.61-84.59,70.18-125.11Z"/>
  <path class="cls-1" d="M405.51,683.81c62.31-60.29,152.99-116.24,229.18-158.55,50.12-27.84,99.95-53.78,151.81-77.1,7.25-49.48,12.73-101.41,7.52-150.03-2.18-18.53-5.6-36.03-14.65-51.97-31.41-55.33-111.94,19.15-139.28,45.72-71.3,69.3-158.57,185.24-213.45,268.99-41.57,63.44-118,191.19-92.63,266.01,2.59-3.39-.33-6.4-.35-9.55-.2-53,35.35-98.2,71.84-133.53Z"/>
  <path class="cls-3" d="M298.29,305.88c-39.22-30.64-82.83-61.73-129.18-80.74-27.6-10.87-68.16-20.09-80.65,16.39-17.03,49.74,15.23,150.12,33.27,200.6,26.34,73.67,56.39,144.78,90.78,215.03,16.53,33.8,33.56,65.92,53.87,97.45-2.94-32.26-5.78-59.63-5.8-89.93-.61-57.08,3-112.43,9.14-169.39,6.87-63.88,15.33-125.94,28.56-189.42Z"/>
</svg>